<?xml version="1.0" encoding="iso-8859-1"?>
<!-- Generator: Adobe Illustrator 19.0.0, SVG Export Plug-In . SVG Version: 6.00 Build 0)  -->
<svg version="1.1" id="Layer_1" xmlns="http://www.w3.org/2000/svg" xmlns:xlink="http://www.w3.org/1999/xlink" x="0px" y="0px"
	 viewBox="0 0 512 512" style="enable-background:new 0 0 512 512;" xml:space="preserve">
<path style="fill:#CCCCCC;" d="M272.15,140.21c-3.08-3.079-8.072-3.08-11.152,0l-23.79,23.789c-1.478,1.478-2.309,3.484-2.309,5.575
	c0,2.091,0.831,4.097,2.309,5.575l193.678,193.678l34.94-34.94L272.15,140.21z"/>
<path style="fill:#B2B2B2;" d="M485.743,353.804L352.108,220.167l-34.94,34.94l133.636,133.635
	c4.468,4.468,10.407,6.928,16.727,6.928c6.319,0,12.258-2.46,16.727-6.928l1.487-1.487
	C494.965,378.034,494.965,363.027,485.743,353.804z"/>
<path style="fill:#808080;" d="M497.638,341.909l-96.131-96.131c-1.102-1.101-2.503-1.851-4.03-2.156l-27.565-5.513l-34.804,34.804
	l5.513,27.565c0.306,1.527,1.056,2.929,2.156,4.03l96.132,96.131c4.611,4.611,10.668,6.917,16.726,6.917
	c6.059,0,12.116-2.306,16.728-6.917l25.274-25.275c4.468-4.468,6.929-10.408,6.929-16.728
	C504.566,352.317,502.105,346.377,497.638,341.909z"/>
<path style="fill:#666666;" d="M470.388,392.802c-6.058,0-12.115-2.306-16.726-6.917l-96.132-96.131
	c-1.101-1.101-1.85-2.502-2.156-4.03l-5.513-27.565l-14.753,14.753l5.513,27.565c0.306,1.527,1.056,2.929,2.156,4.03l96.132,96.131
	c4.611,4.611,10.668,6.917,16.726,6.917c6.059,0,12.116-2.306,16.728-6.917l14.747-14.748
	C482.499,390.497,476.444,392.802,470.388,392.802z"/>
<path style="fill:#FF7452;" d="M329.024,131.665l-83.26-83.262c-2.288-2.287-5.741-2.947-8.71-1.66
	c-2.969,1.287-4.851,4.257-4.747,7.491c1.024,31.574-17.324,52.454-22.972,58.102c-22.336,22.337-50.113,23.231-58.103,22.971
	c-3.183-0.088-6.203,1.777-7.49,4.746c-1.287,2.969-0.629,6.423,1.659,8.71l83.262,83.262c1.511,1.51,3.526,2.31,5.578,2.31
	c1.057,0,2.124-0.212,3.133-0.65c2.969-1.287,4.85-4.257,4.746-7.491c-0.259-7.983,0.632-35.763,22.972-58.102
	c5.647-5.648,26.505-24.003,58.101-22.97c3.21,0.091,6.203-1.776,7.491-4.746C331.969,137.406,331.311,133.953,329.024,131.665z"/>
<path style="fill:#FFD652;" d="M368.673,93.999L283.428,8.754c-4.468-4.468-10.408-6.928-16.727-6.928
	c-6.319,0-12.259,2.46-16.727,6.928l-25.276,25.276c-9.221,9.222-9.221,24.23,0,33.452l85.244,85.244
	c4.468,4.468,10.408,6.928,16.727,6.928c6.319,0,12.259-2.461,16.727-6.928l25.276-25.275
	C377.895,118.228,377.894,103.221,368.673,93.999z"/>
<rect x="275.638" y="33.776" transform="matrix(-0.7071 -0.7071 0.7071 -0.7071 443.945 334.4954)" style="fill:#F7EDBC;" width="31.222" height="83.055"/>
<path style="fill:#FB9D46;" d="M368.673,93.999l-14.411-14.411l-58.73,58.73l14.41,14.41c4.468,4.468,10.408,6.928,16.727,6.928
	s12.259-2.461,16.727-6.928l25.276-25.275C377.895,118.228,377.894,103.221,368.673,93.999z"/>
<path style="fill:#FFD652;" d="M249.727,212.944l-85.244-85.244c-9.222-9.222-24.231-9.221-33.453,0l-25.274,25.275
	c-4.468,4.468-6.929,10.408-6.929,16.727c0,6.319,2.461,12.26,6.928,16.727l85.244,85.244c4.611,4.611,10.668,6.917,16.726,6.917
	c6.059,0,12.116-2.306,16.727-6.917h0.001l25.274-25.275c4.468-4.468,6.929-10.408,6.929-16.728
	C256.655,223.352,254.194,217.411,249.727,212.944z"/>
<rect x="157.043" y="152.787" transform="matrix(-0.7071 -0.7071 0.7071 -0.7071 156.8638 453.6028)" style="fill:#F7EDBC;" width="30.667" height="83.055"/>
<path style="fill:#FB9D46;" d="M249.727,212.944l-14.279-14.279l-58.73,58.73l14.279,14.279c4.611,4.611,10.668,6.917,16.726,6.917
	c6.059,0,12.116-2.306,16.727-6.917h0.001l25.274-25.275c4.468-4.468,6.929-10.408,6.929-16.728
	C256.655,223.352,254.194,217.411,249.727,212.944z"/>
<path style="fill:#FF7452;" d="M257.511,365.965c-0.423-3.236-2.797-5.876-5.969-6.642l-41.079-9.912l22.094-36.023
	c1.706-2.782,1.522-6.327-0.463-8.917c-1.985-2.59-5.357-3.694-8.49-2.767l-40.532,11.956l1.121-42.244
	c0.087-3.262-1.845-6.241-4.859-7.492c-3.013-1.252-6.488-0.516-8.737,1.848l-29.123,30.62l-20.15-37.145
	c-1.555-2.868-4.704-4.484-7.954-4.058c-3.235,0.424-5.876,2.797-6.641,5.968l-9.912,41.08l-36.024-22.094
	c-2.782-1.705-6.327-1.521-8.917,0.463c-2.59,1.985-3.69,5.361-2.767,8.491l11.956,40.532l-42.245-1.122
	c-3.303-0.085-6.242,1.846-7.492,4.859c-1.251,3.014-0.516,6.488,1.848,8.737l30.62,29.123L6.651,391.377
	c-2.869,1.556-4.483,4.718-4.058,7.953c0.423,3.236,2.797,5.876,5.969,6.641l41.079,9.912l-22.094,36.023
	c-1.706,2.782-1.522,6.327,0.462,8.917s5.357,3.691,8.491,2.768l40.532-11.956l-1.121,42.244c-0.087,3.262,1.845,6.241,4.859,7.492
	c3.011,1.25,6.486,0.517,8.737-1.848l29.124-30.62l20.149,37.145c1.391,2.564,4.066,4.125,6.929,4.125
	c0.339,0,0.681-0.022,1.026-0.066c3.235-0.424,5.876-2.797,6.641-5.968l9.912-41.08l36.024,22.094
	c2.782,1.706,6.328,1.523,8.917-0.463c2.59-1.985,3.69-5.36,2.767-8.491l-11.956-40.532l42.244,1.122
	c3.274,0.06,6.242-1.846,7.492-4.859c1.251-3.014,0.516-6.488-1.848-8.737l-30.62-29.124l37.145-20.151
	C256.321,372.364,257.934,369.201,257.511,365.965z"/>
<circle style="fill:#FFD652;" cx="129.84" cy="382.865" r="71.491"/>
<path style="fill:#E24642;" d="M159.489,354.789c4.356,0,7.885-3.53,7.885-7.885c0-4.355-3.529-7.885-7.885-7.885h-21.552v-8.936
	c0-4.355-3.529-7.885-7.885-7.885c-4.356,0-7.885,3.53-7.885,7.885v8.936h-6.834c-10.144,0-18.398,8.254-18.398,18.398v16.821
	c0,10.144,8.254,18.398,18.398,18.398h6.834v22.078h-21.552c-4.356,0-7.885,3.53-7.885,7.885s3.529,7.885,7.885,7.885h21.552v8.936
	c0,4.355,3.529,7.885,7.885,7.885c4.356,0,7.885-3.53,7.885-7.885v-8.936h6.834c10.144,0,18.398-8.254,18.398-18.398v-16.821
	c0-10.144-8.254-18.398-18.398-18.398h-6.834v-22.078H159.489z M144.77,392.637c1.45,0,2.628,1.18,2.628,2.628v16.821
	c0,1.449-1.179,2.628-2.628,2.628h-6.834v-22.078H144.77z M122.166,376.867h-6.834c-1.45,0-2.628-1.18-2.628-2.628v-16.821
	c0-1.449,1.179-2.628,2.628-2.628h6.834V376.867z"/>
<g>
	<path style="fill:#458FDE;" d="M397.917,431.816c-5.353-0.711-18.843-3.691-28.475-15.972c-6.844-8.731-8.486-18.201-8.856-23.067
		c-0.312-4.112-3.74-7.288-7.863-7.288c-4.123,0-7.551,3.176-7.863,7.288c-0.37,4.867-2.012,14.336-8.856,23.067
		c-9.632,12.281-23.123,15.262-28.475,15.973c-3.919,0.52-6.847,3.863-6.847,7.817c0,3.954,2.928,7.295,6.847,7.817
		c5.353,0.711,18.843,3.691,28.475,15.972c6.844,8.731,8.486,18.201,8.856,23.067c0.312,4.112,3.74,7.288,7.863,7.288
		c4.123,0,7.551-3.176,7.863-7.288c0.37-4.867,2.012-14.336,8.855-23.066c9.633-12.283,23.123-15.263,28.476-15.974
		c3.919-0.52,6.847-3.863,6.847-7.817C404.764,435.678,401.836,432.336,397.917,431.816z"/>
	<path style="fill:#458FDE;" d="M505.153,80.67c-5.353-0.711-18.843-3.691-28.475-15.972c-6.844-8.731-8.486-18.201-8.856-23.067
		c-0.312-4.112-3.74-7.288-7.863-7.288s-7.551,3.176-7.863,7.288c-0.37,4.867-2.012,14.336-8.856,23.067
		c-9.632,12.281-23.123,15.262-28.475,15.973c-3.919,0.52-6.847,3.863-6.847,7.817s2.928,7.295,6.847,7.817
		c5.353,0.711,18.843,3.691,28.475,15.972c6.844,8.731,8.486,18.201,8.856,23.067c0.312,4.112,3.74,7.288,7.863,7.288
		s7.551-3.176,7.863-7.288c0.37-4.867,2.012-14.336,8.855-23.066c9.633-12.283,23.123-15.263,28.476-15.974
		c3.919-0.52,6.847-3.863,6.847-7.817S509.072,81.19,505.153,80.67z"/>
	<path style="fill:#458FDE;" d="M97.235,51.233c-5.353-0.711-18.843-3.691-28.475-15.972c-6.844-8.731-8.486-18.201-8.856-23.067
		c-0.312-4.112-3.74-7.288-7.863-7.288s-7.551,3.176-7.863,7.288c-0.37,4.867-2.012,14.336-8.856,23.067
		C25.69,47.54,12.2,50.522,6.847,51.233C2.928,51.753,0,55.096,0,59.049s2.928,7.295,6.847,7.817
		c5.353,0.711,18.843,3.691,28.475,15.972c6.844,8.731,8.486,18.201,8.856,23.067c0.312,4.112,3.74,7.288,7.863,7.288
		s7.551-3.176,7.863-7.288c0.37-4.867,2.012-14.336,8.855-23.066c9.631-12.283,23.122-15.262,28.474-15.974
		c3.919-0.52,6.847-3.863,6.847-7.816S101.154,51.753,97.235,51.233z"/>
</g>
<g>
</g>
<g>
</g>
<g>
</g>
<g>
</g>
<g>
</g>
<g>
</g>
<g>
</g>
<g>
</g>
<g>
</g>
<g>
</g>
<g>
</g>
<g>
</g>
<g>
</g>
<g>
</g>
<g>
</g>
</svg>
